<svg xmlns="http://www.w3.org/2000/svg" viewBox="0 0 100 100" width="512" height="512">

  <defs>
    <radialGradient id="bg-disposed" cx="50%" cy="35%" r="65%">
      <stop offset="0%"   stop-color="#181828"/>
      <stop offset="100%" stop-color="#070710"/>
    </radialGradient>
    
    <linearGradient id="flame-L-disposed" x1="50%" y1="100%" x2="50%" y2="0%">
      <stop offset="0%"   stop-color="#282830"/>
      <stop offset="42%"  stop-color="#484858"/>
      <stop offset="100%" stop-color="#7888a0" stop-opacity="0.8"/>
    </linearGradient>
    
    <linearGradient id="flame-R-disposed" x1="50%" y1="100%" x2="50%" y2="0%">
      <stop offset="0%"   stop-color="#282830"/>
      <stop offset="42%"  stop-color="#484858"/>
      <stop offset="100%" stop-color="#7888a0" stop-opacity="0.8"/>
    </linearGradient>
    
    <filter id="fglow-disposed" x="-80%" y="-80%" width="260%" height="260%">
      <feGaussianBlur stdDeviation="3" result="b"/>
      <feMerge><feMergeNode in="b"/><feMergeNode in="SourceGraphic"/></feMerge>
    </filter>
    <filter id="pglow-disposed" x="-100%" y="-100%" width="300%" height="300%">
      <feGaussianBlur stdDeviation="1.8" result="b"/>
      <feMerge><feMergeNode in="b"/><feMergeNode in="SourceGraphic"/></feMerge>
    </filter>
  </defs>
<rect width="100" height="100" rx="18" fill="url(#bg-disposed)"/>

    <rect x="49.2" y="57" width="1.6" height="26" fill="#6070840"/>
    <rect x="49.2" y="57" width="1.6" height="26" fill="#607084"/>
    <rect x="41"   y="82" width="18"  height="2"  rx="1" fill="#607084"/>
    <rect x="40"   y="83.2" width="3" height="3.5" rx="0.8" fill="#607084"/>
    <rect x="57"   y="83.2" width="3" height="3.5" rx="0.8" fill="#607084"/>
<path d="M 18 57 L 82 57" stroke="#8faabf" stroke-width="2.5" stroke-linecap="round" fill="none"/>

    <line x1="18.00" y1="57.00" x2="18.00" y2="66.50" stroke="#607084" stroke-width="1.1"/>
    <ellipse cx="18.00" cy="66.50" rx="10" ry="2.2" fill="#0c0e1a" stroke="#8faabf" stroke-width="1.3"/>

    <line x1="82.00" y1="57.00" x2="82.00" y2="66.50" stroke="#607084" stroke-width="1.1"/>
    <ellipse cx="82.00" cy="66.50" rx="10" ry="2.2" fill="#0c0e1a" stroke="#8faabf" stroke-width="1.3"/>

    <path d="M 13.100000000000001 66.5 C 11.385000000000002 58.8 14.08 54.18 18 51.1 C 21.92 54.18 24.615 58.8 22.9 66.5 Z" fill="url(#flame-L-disposed)" filter="url(#fglow-disposed)"/>
    <path d="M 15.9 66.5 C 15.48 61.11 16.740000000000002 53.06 18 52.64 C 19.259999999999998 53.06 20.52 61.11 20.1 66.5 Z" fill="#9098a8" opacity="0.45"/>
    <path d="M 77.1 66.5 C 75.385 58.8 78.08 54.18 82 51.1 C 85.92 54.18 88.615 58.8 86.9 66.5 Z" fill="url(#flame-R-disposed)" filter="url(#fglow-disposed)"/>
    <path d="M 79.9 66.5 C 79.48 61.11 80.74 53.06 82 52.64 C 83.26 53.06 84.52 61.11 84.1 66.5 Z" fill="#9098a8" opacity="0.45"/>

    <circle cx="50" cy="57" r="5"   fill="#404050" filter="url(#pglow-disposed)"/>
    <circle cx="50" cy="57" r="3"   fill="#606070"/>
    <circle cx="50" cy="57" r="1.2" fill="#808090"/>
<!-- state: DISPOSED (default) -->
</svg>