<svg xmlns="http://www.w3.org/2000/svg" viewBox="0 0 100 100" width="512" height="512">

  <defs>
    <radialGradient id="bg-challenger-ahead" cx="50%" cy="35%" r="65%">
      <stop offset="0%"   stop-color="#181828"/>
      <stop offset="100%" stop-color="#070710"/>
    </radialGradient>
    
    <linearGradient id="flame-L-challenger-ahead" x1="50%" y1="100%" x2="50%" y2="0%">
      <stop offset="0%"   stop-color="#1030a0"/>
      <stop offset="42%"  stop-color="#3880e0"/>
      <stop offset="100%" stop-color="#b8e0ff" stop-opacity="0.92"/>
    </linearGradient>
    
    <linearGradient id="flame-R-challenger-ahead" x1="50%" y1="100%" x2="50%" y2="0%">
      <stop offset="0%"   stop-color="#903010"/>
      <stop offset="42%"  stop-color="#d06020"/>
      <stop offset="100%" stop-color="#ffc870" stop-opacity="0.92"/>
    </linearGradient>
    
    <filter id="fglow-challenger-ahead" x="-80%" y="-80%" width="260%" height="260%">
      <feGaussianBlur stdDeviation="3" result="b"/>
      <feMerge><feMergeNode in="b"/><feMergeNode in="SourceGraphic"/></feMerge>
    </filter>
    <filter id="pglow-challenger-ahead" x="-100%" y="-100%" width="300%" height="300%">
      <feGaussianBlur stdDeviation="1.8" result="b"/>
      <feMerge><feMergeNode in="b"/><feMergeNode in="SourceGraphic"/></feMerge>
    </filter>
  </defs>
<rect width="100" height="100" rx="18" fill="url(#bg-challenger-ahead)"/>

    <rect x="49.2" y="57" width="1.6" height="26" fill="#6070840"/>
    <rect x="49.2" y="57" width="1.6" height="26" fill="#607084"/>
    <rect x="41"   y="82" width="18"  height="2"  rx="1" fill="#607084"/>
    <rect x="40"   y="83.2" width="3" height="3.5" rx="0.8" fill="#607084"/>
    <rect x="57"   y="83.2" width="3" height="3.5" rx="0.8" fill="#607084"/>
<path d="M 18.486151903609343 62.55674168534177 L 81.51384809639066 51.44325831465823" stroke="#8faabf" stroke-width="2.5" stroke-linecap="round" fill="none"/>

    <line x1="18.49" y1="62.56" x2="18.49" y2="72.06" stroke="#607084" stroke-width="1.1"/>
    <ellipse cx="18.49" cy="72.06" rx="10" ry="2.2" fill="#0c0e1a" stroke="#8faabf" stroke-width="1.3"/>

    <line x1="81.51" y1="51.44" x2="81.51" y2="60.94" stroke="#607084" stroke-width="1.1"/>
    <ellipse cx="81.51" cy="60.94" rx="10" ry="2.2" fill="#0c0e1a" stroke="#8faabf" stroke-width="1.3"/>

    <path d="M 9.386151903609344 72.05674168534176 C 6.201151903609343 57.756741685341765 11.206151903609342 49.17674168534176 18.486151903609343 43.45674168534176 C 25.766151903609344 49.17674168534176 30.771151903609343 57.756741685341765 27.58615190360934 72.05674168534176 Z" fill="url(#flame-L-challenger-ahead)" filter="url(#fglow-challenger-ahead)"/>
    <path d="M 14.586151903609343 72.05674168534176 C 13.806151903609344 62.046741685341765 16.146151903609343 47.09674168534176 18.486151903609343 46.31674168534176 C 20.826151903609343 47.09674168534176 23.166151903609343 62.046741685341765 22.386151903609345 72.05674168534176 Z" fill="#d8f0ff" opacity="0.45"/>
    <path d="M 76.61384809639065 60.94325831465823 C 74.89884809639067 53.243258314658235 77.59384809639066 48.62325831465823 81.51384809639066 45.54325831465823 C 85.43384809639066 48.62325831465823 88.12884809639066 53.243258314658235 86.41384809639067 60.94325831465823 Z" fill="url(#flame-R-challenger-ahead)" filter="url(#fglow-challenger-ahead)"/>
    <path d="M 79.41384809639067 60.94325831465823 C 78.99384809639066 55.55325831465823 80.25384809639066 47.50325831465823 81.51384809639066 47.08325831465823 C 82.77384809639067 47.50325831465823 84.03384809639066 55.55325831465823 83.61384809639065 60.94325831465823 Z" fill="#ffe0a0" opacity="0.45"/>

    <circle cx="50" cy="57" r="5"   fill="#c8a420" filter="url(#pglow-challenger-ahead)"/>
    <circle cx="50" cy="57" r="3"   fill="#f0d048"/>
    <circle cx="50" cy="57" r="1.2" fill="#fdf0a0"/>
<!-- state: CHALLENGER AHEAD -->
</svg>