<svg xmlns="http://www.w3.org/2000/svg" viewBox="0 0 100 100" width="512" height="512">

  <defs>
    <radialGradient id="bg-open" cx="50%" cy="35%" r="65%">
      <stop offset="0%"   stop-color="#181828"/>
      <stop offset="100%" stop-color="#070710"/>
    </radialGradient>
    
    <linearGradient id="flame-L-open" x1="50%" y1="100%" x2="50%" y2="0%">
      <stop offset="0%"   stop-color="#1030a0"/>
      <stop offset="42%"  stop-color="#3880e0"/>
      <stop offset="100%" stop-color="#b8e0ff" stop-opacity="0.92"/>
    </linearGradient>
    
    <linearGradient id="flame-R-open" x1="50%" y1="100%" x2="50%" y2="0%">
      <stop offset="0%"   stop-color="#903010"/>
      <stop offset="42%"  stop-color="#d06020"/>
      <stop offset="100%" stop-color="#ffc870" stop-opacity="0.92"/>
    </linearGradient>
    
    <filter id="fglow-open" x="-80%" y="-80%" width="260%" height="260%">
      <feGaussianBlur stdDeviation="3" result="b"/>
      <feMerge><feMergeNode in="b"/><feMergeNode in="SourceGraphic"/></feMerge>
    </filter>
    <filter id="pglow-open" x="-100%" y="-100%" width="300%" height="300%">
      <feGaussianBlur stdDeviation="1.8" result="b"/>
      <feMerge><feMergeNode in="b"/><feMergeNode in="SourceGraphic"/></feMerge>
    </filter>
  </defs>
<rect width="100" height="100" rx="18" fill="url(#bg-open)"/>

    <rect x="49.2" y="57" width="1.6" height="26" fill="#6070840"/>
    <rect x="49.2" y="57" width="1.6" height="26" fill="#607084"/>
    <rect x="41"   y="82" width="18"  height="2"  rx="1" fill="#607084"/>
    <rect x="40"   y="83.2" width="3" height="3.5" rx="0.8" fill="#607084"/>
    <rect x="57"   y="83.2" width="3" height="3.5" rx="0.8" fill="#607084"/>
<path d="M 18 57 L 82 57" stroke="#8faabf" stroke-width="2.5" stroke-linecap="round" fill="none"/>

    <line x1="18.00" y1="57.00" x2="18.00" y2="66.50" stroke="#607084" stroke-width="1.1"/>
    <ellipse cx="18.00" cy="66.50" rx="10" ry="2.2" fill="#0c0e1a" stroke="#8faabf" stroke-width="1.3"/>

    <line x1="82.00" y1="57.00" x2="82.00" y2="66.50" stroke="#607084" stroke-width="1.1"/>
    <ellipse cx="82.00" cy="66.50" rx="10" ry="2.2" fill="#0c0e1a" stroke="#8faabf" stroke-width="1.3"/>

    <path d="M 11 66.5 C 8.549999999999999 55.5 12.399999999999999 48.9 18 44.5 C 23.6 48.9 27.450000000000003 55.5 25 66.5 Z" fill="url(#flame-L-open)" filter="url(#fglow-open)"/>
    <path d="M 15 66.5 C 14.4 58.8 16.2 47.3 18 46.7 C 19.8 47.3 21.6 58.8 21 66.5 Z" fill="#d8f0ff" opacity="0.45"/>
    <path d="M 75 66.5 C 72.55 55.5 76.4 48.9 82 44.5 C 87.6 48.9 91.45 55.5 89 66.5 Z" fill="url(#flame-R-open)" filter="url(#fglow-open)"/>
    <path d="M 79 66.5 C 78.4 58.8 80.2 47.3 82 46.7 C 83.8 47.3 85.6 58.8 85 66.5 Z" fill="#ffe0a0" opacity="0.45"/>

    <circle cx="50" cy="57" r="5"   fill="#c8a420" filter="url(#pglow-open)"/>
    <circle cx="50" cy="57" r="3"   fill="#f0d048"/>
    <circle cx="50" cy="57" r="1.2" fill="#fdf0a0"/>
<!-- state: OPEN (active) -->
</svg>