<svg xmlns="http://www.w3.org/2000/svg" viewBox="0 0 100 100" width="512" height="512">

  <defs>
    <radialGradient id="bg-defender-holding" cx="50%" cy="35%" r="65%">
      <stop offset="0%"   stop-color="#181828"/>
      <stop offset="100%" stop-color="#070710"/>
    </radialGradient>
    
    <linearGradient id="flame-L-defender-holding" x1="50%" y1="100%" x2="50%" y2="0%">
      <stop offset="0%"   stop-color="#1030a0"/>
      <stop offset="42%"  stop-color="#3880e0"/>
      <stop offset="100%" stop-color="#b8e0ff" stop-opacity="0.92"/>
    </linearGradient>
    
    <linearGradient id="flame-R-defender-holding" x1="50%" y1="100%" x2="50%" y2="0%">
      <stop offset="0%"   stop-color="#903010"/>
      <stop offset="42%"  stop-color="#d06020"/>
      <stop offset="100%" stop-color="#ffc870" stop-opacity="0.92"/>
    </linearGradient>
    
    <filter id="fglow-defender-holding" x="-80%" y="-80%" width="260%" height="260%">
      <feGaussianBlur stdDeviation="3" result="b"/>
      <feMerge><feMergeNode in="b"/><feMergeNode in="SourceGraphic"/></feMerge>
    </filter>
    <filter id="pglow-defender-holding" x="-100%" y="-100%" width="300%" height="300%">
      <feGaussianBlur stdDeviation="1.8" result="b"/>
      <feMerge><feMergeNode in="b"/><feMergeNode in="SourceGraphic"/></feMerge>
    </filter>
  </defs>
<rect width="100" height="100" rx="18" fill="url(#bg-defender-holding)"/>

    <rect x="49.2" y="57" width="1.6" height="26" fill="#6070840"/>
    <rect x="49.2" y="57" width="1.6" height="26" fill="#607084"/>
    <rect x="41"   y="82" width="18"  height="2"  rx="1" fill="#607084"/>
    <rect x="40"   y="83.2" width="3" height="3.5" rx="0.8" fill="#607084"/>
    <rect x="57"   y="83.2" width="3" height="3.5" rx="0.8" fill="#607084"/>
<path d="M 18.486151903609343 51.44325831465823 L 81.51384809639066 62.55674168534177" stroke="#8faabf" stroke-width="2.5" stroke-linecap="round" fill="none"/>

    <line x1="18.49" y1="51.44" x2="18.49" y2="60.94" stroke="#607084" stroke-width="1.1"/>
    <ellipse cx="18.49" cy="60.94" rx="10" ry="2.2" fill="#0c0e1a" stroke="#8faabf" stroke-width="1.3"/>

    <line x1="81.51" y1="62.56" x2="81.51" y2="72.06" stroke="#607084" stroke-width="1.1"/>
    <ellipse cx="81.51" cy="72.06" rx="10" ry="2.2" fill="#0c0e1a" stroke="#8faabf" stroke-width="1.3"/>

    <path d="M 13.586151903609345 60.94325831465823 C 11.871151903609345 53.243258314658235 14.566151903609343 48.62325831465823 18.486151903609343 45.54325831465823 C 22.40615190360934 48.62325831465823 25.101151903609342 53.243258314658235 23.386151903609342 60.94325831465823 Z" fill="url(#flame-L-defender-holding)" filter="url(#fglow-defender-holding)"/>
    <path d="M 16.386151903609345 60.94325831465823 C 15.966151903609344 55.55325831465823 17.226151903609342 47.50325831465823 18.486151903609343 47.08325831465823 C 19.746151903609345 47.50325831465823 21.006151903609343 55.55325831465823 20.58615190360934 60.94325831465823 Z" fill="#d8f0ff" opacity="0.45"/>
    <path d="M 72.41384809639067 72.05674168534176 C 69.22884809639066 57.756741685341765 74.23384809639066 49.17674168534176 81.51384809639066 43.45674168534176 C 88.79384809639066 49.17674168534176 93.79884809639066 57.756741685341765 90.61384809639065 72.05674168534176 Z" fill="url(#flame-R-defender-holding)" filter="url(#fglow-defender-holding)"/>
    <path d="M 77.61384809639065 72.05674168534176 C 76.83384809639065 62.046741685341765 79.17384809639066 47.09674168534176 81.51384809639066 46.31674168534176 C 83.85384809639066 47.09674168534176 86.19384809639067 62.046741685341765 85.41384809639067 72.05674168534176 Z" fill="#ffe0a0" opacity="0.45"/>

    <circle cx="50" cy="57" r="5"   fill="#c8a420" filter="url(#pglow-defender-holding)"/>
    <circle cx="50" cy="57" r="3"   fill="#f0d048"/>
    <circle cx="50" cy="57" r="1.2" fill="#fdf0a0"/>
<!-- state: DEFENDER HOLDING -->
</svg>